# xmcd
#
# Track frame offsets:
#	150
#	17223
#	37078
#	68134
#	82344
#	99023
#	114856
#	131414
#	153455
#	177679
#
# Disc length: 2801 seconds
#
# Revision: 0
# Processed by: cddbd v1.5.1PL0 Copyright (c) Steve Scherf et al.
# Submitted via: audiograbber 1.81.02
#
DISCID=810aef0a
DTITLE=Blues Band Vidro - Na República do Chuvisco
DYEAR=2000
DGENRE=R&B
TTITLE0=Tempo Perdido
TTITLE1=Estou Te Deixando
TTITLE2=Força Estranha
TTITLE3=Não Encontro Meu Prazer
TTITLE4=Porta Estreita
TTITLE5=Paraiba Blues
TTITLE6=Nada Mudou
TTITLE7=Extrema Ilusão
TTITLE8=Vítimas do Orgulho
TTITLE9=Anjo da Escuridão
EXTD=
EXTT0=
EXTT1=
EXTT2=
EXTT3=
EXTT4=
EXTT5=
EXTT6=
EXTT7=
EXTT8=
EXTT9=Cadastrado por Adolfo Nobre
PLAYORDER=
